<mxfile host="65bd71144e">
    <diagram id="4W4guehasIa-sooYHsVE" name="Page-1">
        <mxGraphModel dx="1800" dy="720" grid="1" gridSize="10" guides="1" tooltips="1" connect="1" arrows="1" fold="1" page="1" pageScale="1" pageWidth="850" pageHeight="1100" math="0" shadow="0">
            <root>
                <mxCell id="0"/>
                <mxCell id="1" parent="0"/>
                <mxCell id="34" value="" style="rounded=0;whiteSpace=wrap;html=1;labelBackgroundColor=#FFFFFF;strokeColor=#000000;fontColor=#000000;fillColor=#FFFFFF;" parent="1" vertex="1">
                    <mxGeometry x="-200" y="80" width="1170" height="770" as="geometry"/>
                </mxCell>
                <mxCell id="2" value="Node.js Container" style="swimlane;whiteSpace=wrap;html=1;strokeColor=#000000;" parent="1" vertex="1">
                    <mxGeometry x="-130" y="170" width="200" height="200" as="geometry"/>
                </mxCell>
                <mxCell id="13" value="" style="shape=image;verticalLabelPosition=bottom;labelBackgroundColor=default;verticalAlign=top;aspect=fixed;imageAspect=0;image=https://upload.wikimedia.org/wikipedia/commons/thumb/d/d9/Node.js_logo.svg/1200px-Node.js_logo.svg.png;strokeColor=#000000;" parent="2" vertex="1">
                    <mxGeometry x="44.400000000000006" y="66" width="111.2" height="68" as="geometry"/>
                </mxCell>
                <mxCell id="35" value="&lt;span style=&quot;background-color: rgb(255, 255, 255);&quot;&gt;eth0: 172.17.0.2&amp;nbsp;&lt;br&gt;&lt;/span&gt;" style="text;html=1;align=center;verticalAlign=middle;resizable=0;points=[];autosize=1;strokeColor=none;fillColor=none;fontColor=#000000;" parent="2" vertex="1">
                    <mxGeometry x="44.400000000000006" y="170" width="110" height="30" as="geometry"/>
                </mxCell>
                <mxCell id="3" value="MySQL Container" style="swimlane;whiteSpace=wrap;html=1;strokeColor=#000000;" parent="1" vertex="1">
                    <mxGeometry x="150" y="170" width="200" height="200" as="geometry"/>
                </mxCell>
                <mxCell id="14" value="" style="shape=image;verticalLabelPosition=bottom;labelBackgroundColor=default;verticalAlign=top;aspect=fixed;imageAspect=0;image=https://d1.awsstatic.com/asset-repository/products/amazon-rds/1024px-MySQL.ff87215b43fd7292af172e2a5d9b844217262571.png;strokeColor=#000000;" parent="3" vertex="1">
                    <mxGeometry x="37.51" y="69.34" width="124.99" height="64.66" as="geometry"/>
                </mxCell>
                <mxCell id="4" value="React.js Container" style="swimlane;whiteSpace=wrap;html=1;startSize=23;strokeColor=#000000;" parent="1" vertex="1">
                    <mxGeometry x="430" y="170" width="200" height="200" as="geometry"/>
                </mxCell>
                <mxCell id="15" value="" style="shape=image;verticalLabelPosition=bottom;labelBackgroundColor=default;verticalAlign=top;aspect=fixed;imageAspect=0;image=data:image/png,iVBORw0KGgoAAAANSUhEUgAAAPEAAADRCAMAAAAquaQNAAAAWlBMVEX///9h2vtR1/ta2ftp3Pvy/P/6/v/p+f7F8P3t+v77/v+97v194PzB7/3g9/7S8/617P2h5/yI4vzZ9f6s6v2S5Py27P2b5vyk6PzN8v5y3fuA4PyL4vyV5fy3bU5tAAAO0UlEQVR4nOVdaZuiMAwWCgKKoCIe6Pz/v7mCSpM2PTlmXN4P++zMYG3aNFeTsFoNRnGuo+CN+2FXDB8RINkd7p/Bo/o87uBeiK8sZCzowVgY1ulmnMHTOhQHZ9dsnLE9EdchmBCY2KMcPHb5QNT2g4d1PMLMPbGn6H3PK9ivB4y82QeasfejUeCGdR4q5vSe2NV3M+KrktwOYT5kNb2RBdpZdTQffGa2PujpbUcOfuE0Z6ZZvWg+OQ98MtLbjTw7ybHNtLrduDmNezNyzmfgueVXZDmx9tDZb0emFw2I4mhC6gj8IIJbJRy2/zBan9iyNin72WvgMBSUFfuZlEIBFdwKFubborM5snJ/p5QoaxKLQZOG+CQL7/uyY5JNsc3RioTVpDRiwEmFd0xOSVklFip0LzP009rAlkxyRw+NSpMWZ0BSuJP/voskosNcL2li6QSzsKGGBo+x80j0mAEJplmrykWaGdMZnqV4Fp5HRTEyJHkEWqyw5bMLlbqnkDYtvCpHvErPKuh94safZduBlNgi4l950DxWihqM5bRPtcnFByMdPxz40zNpqAJsiP7Js8DaLKBkdiIYHUZPAbDCPP7ypZ8gSw2PxkeBXYlTcBMfOZqsqZRPQMdj4wHsiPnhmyCSJGvkhAlmzMIqBY97UeAIztTMxk9dC9sc1ujPtfDXo423te9XcRa2Bl9nZ8xvhV3Mwd8EmRXaCd+YL/ocKvnIqKnrkGGhzaLPPq7FP9j6HP1CsaMHBa7gYsM++IJ59+PPCzEFgd914Hw2w0HO+sm7nCGRs1stlXhxdAdueIXTRwZKfoxdPlZgmf1crQLvO3OSQfwgDw+amsC9iMbpczH2BdkW/9i4hTSa/oPTi67exmP2x+6FI6YR/eAqgOp+FtPbIFxUOwftDqqQTug87dOMwprzk8nElHGmSQ7dOTP1PFs+4HrBQ2akFMmh+9IB+Tm9evJSTj1KmeTQR9pyQe+kMbwwUBMWku/vZRln81HMTVpLq1pEIlBsE+XUTmPqK6jBX7WOEMGR5yhDF94eQyneCKEgFnndrn8RxVIUnnmpl++h+CgS7GlD/A7FHl91kQl+knyZexpOWA/RTsRFSzeSe5YD0E4jZdmowb/KWa+gqCW6M3O7Y34i+RULxNV0QMZHiK4hBow1PcV8kxytQ5RVEG5xWMT1xp/b1dNfMHr7TlAvdVFrGKl21VFz+k7cP3aTN1Avva/3YaKBo47az+gfX/yiD2hD7+9f3sVttwaPxHioNkf4RR9KmoMRp7vIhQGRGGfsfE5QppBSWJo5KHguTYg8gpHBQ8UO0QfoPiBNhDSWw20wDyFPn/6Sedh3D0gwtjagVcIetgPGQyw/Z/Avs11eGNDT3qZaX0tUMxog0ASxPEKFfhsfKo7XgIf358iLODqqpw04qWRqIYoR2PkFXDlZH4QB4OrJ7jYVKl0yYxZm8faqWo98RuWEsjBsHkeHmFa5UFnbRevtM1HGQOEkJxN4iFUbcnI8ytkAl9UHXCE7JanoOBZyvlU6TU+xw7z9we0d8yGqISlFUVXlLd3ttk+c2392u/RWVlVRwIUx31leZ/ScWlxsRdc6w6kBrxxpCe1v4WPhNjMEDfMZ/YgWO5Poyqr0dDk2QWhV8SCjzSBv7pdTWikEBT9X01vVLQpl4Ceudtdj9Mql9yMWkP3KnY+O161IeDGz4IJL3FuFcbW95KqygaGUt1t+OVe9Gb+dWXABydpZPHF5OgZiEcPoaOkOjqeyJbu3Sy3tleEA6nNbBxPsq5psFgaPLf95DourBUhjn41YSHb/3/lqQ6yLkibGTMc4TutB0xS08aCxHrvJK9uSfeMuo15WRve5qGny+/HxqFs8Hsd73jTRu0TMQyA8P9fsJ9RQyUmu6rGZ1jYtiyRe61zfzTpOivK28xk+jE6TEB2fGxty3+oT/MbpGg1dxjW2Cr7d6bHZ+3Y31wS3Vf5NfUqLGPjQrpcG4Ori6fvGRXqqG2ZBNwvvzheUaiRXwze2+9rU7/rCFQw1Pv/mlkqwhq7yZ9+ycv8TmYyc5xyv43B3adjeJ7GXd6XmB2CjnK+GYQEXYo9NsTs0oaGQ/z48+ZgoQcSICmkTS9WkrQCXS5r/poioSQCao2Hu1Nlc8U3E6fV/NQEeCTkeEhutHzYg5fqsOjgM7LtcO3gFm+Sz4KD8lEmljiARnam4z5fmVLG/T2P+WoE4vRgIAbE862oZDFASJDnA4G+r6qpqGsIC96WuGpJ9nprvpe55uaTIuHC+fpdCmXrNQKVTdz+gNIrCxs3LiB8UvdC6qYiwQAcoa32duZNS1oNgwIciFdHhw0GGbIkhnuruAIM8PNiFtwF+xo9e3SDcmIMxtuJAGQzM+uJOLnCnTBqefod4F4otf++1Uggvzu9iFPMmFbUH5lL+z2fl5Xpur2TNALYGKTDwCA65BHvQwmAvMzX/6gMxcRsD6CJtMAtIYc8fABeG0HwYYtvHtBEDzA/qU1tZvYSmiPZaygYOI8VlFudfHsSF3DispdSeOh2gEFjRkyCNpJYTjdawFwvcA6aiF319v47AS9ReZSdlmqal1u4H29lftVyIRRaRSt0LdIUJYtkG0zZjAA0U3r8B1pI6Vyk5Ne/LmKcPclLOHBjnveXGadGt51Y8z+rlqTDBTNPOogUoib2JM1J6ECmOKzwtGhUTQU/59Rt+pWg4MmJDM5XWEHY4zA3eJlAVL5V8MlpblXTMWkFBzyeTTBluzZmkYiIoWHqXE/SQjfrOsUpe6zyADj+KjHK6CxNU7esVscI6CEYUdUG1RpNgjYVJDPIj2k0AJQGMiuLFyp5eLKL2bAPGu6AVsMmFEKp/A1liox4GlsWi4COYCyn+yDRBG0amxGzxKQGPW80OlcLKbHFCBFvmkxyg7HroJamhTR2ZUg60wQPKLcusX1QXKro16BBbF7gn4GRlBs1kaFNHZnpBDZUBqWEbwCvQNuJPQaZn9hFB4MrA/xJP1nqCFekfYFrwv9bzg80Z8LRQPqhDCDSl6KBUAVGFK32M4AypkrWboEMOFyQZeRXApHMrSyEoJo0PI70tiM8RNXBuNdZwzcDBgefFrcnXVZ4Rdcqs7pOoNJZE3mSVE6HAlpQvPIHM1anNpBmR51EfZP6AEl7y+XcNnnE24UkU0Bl1Lb+8izOiJlSZT3H3UeJASUvqnPsB7nV64xTYTs5OrSiSyJwygvcpkPz6I3zWPZYEPJ6PzOODktahHgLDkja+HVMrLJfQ/Iwe3Frt26j2E/JJ+sNCiTSH1nZMrShpxhW8Pll6fEc/yzWsLRD2UagtJrUqSTGlGfEm+7T/kJov+VS3AECLnGaSm90xDhTpy3CTvYL+UuUMCFh5DIf2gF6yrTXFpDFg/gITxETSgRQDp0kR6xlIMdSofjFwMSC4vD1e3jlenqweVR9TI/w9fbw8m+u77Grnk0fY1ZP7TpYHeT7fCfrHjvlXX+ofLzAGguJcTv7nn49zwWAE5CEYy3SpISL37k/FMiFhyL5ZXLwanxfrAK7qToIyFn3uJADr+d1JIKqETy3u3mmBd4tfcH98km0nDTLj/fHycgQG5YG8jJlvywOZJ9fn9pdyfRaYz0Xl7AUT5ezd0ttEOXsyCdrvWVxe5kqRe0spG3I7vy/3drXA/Orn+t5lFcLC/P/NoV+1Mlf+9B+pk+BfC36rqJNweY1bXFPW0X9cC7PS1DtF/2e9UwtNTduh/BM1beVBXdPm17draXWLLb6yNpUu3bHG0uqPu/n/nRrzyxw15i0ymz4C0bR9BGqrPgIjNkhdWK+IDv79QFwUBQo//mo/kA6durfNcADz+dKeL2+i9/mS+vq88Jd6N9Xp5L2bXrDN65gac7XZW2APtuX12ZN6KT7+916KRDCg7ZdprT4dSX31y9z+Yr/Mv9QTdZ43t5v73hb/Wd/b5fU2Xl7/as5TC+lRPnUfegsz2e/N4t5Y3rsGlvc+ieW9M4RPfynvheFSw9ZzgVr5C9/9s7z3O033Di/ykCuguTkfHct7T9sI7+Lje/kV7+Jb3vsWl/dOzeW9N5VPcinvxvV3W3AOP8r3/tPvP+ZftZB3XC/vPebLe1c9+CrXos4WRI2al35Zfw3FKymb2VUvvfBFFG+EghgWeZ3DL6J4tcbpSZHnKL9Csd9XJQJX+93wD154Bwz0xaVWXX4ObvYrFohPqJioynVvDLCa1+bioWKPmaaUCeKU/vQGt6v9OvO4wNt3Wo1pc83pOw2IPhxogu0KVjD8IjF+4NEH8x0gBra38A+u8679IjFeOHvyk9BdmeGGTqxx03X8bA1LpraB3BbICgVOk2AFbsMbMOv2wh2GNV9yg99NppAs0DVnSPAiuHQiqQZaBW7gesFexOJiIha8WDjGhzm0Fwz7GZUTFNa2lS4Z9h5Yb0uvxT/Ympz5jKIa1Q7aSRvM0XihcuxJWXI2qHqaXnChklgbtl4LVZAC7wrFc+HRxjEAiz5LQhfYFvPDYqWr9ja1XUW3dJo5jjHqe2IyNOOjYGYRUcub+MjRdFhAJsr09kcLGHfWP7kXkvboAnexlJ+Z7GywOvNkKcKWCbo1LqW38OR0hGeTiw8GOruC89gsOREtYPcZ5amrpHefaZptnKRnc2WgAJaAubVPGwB4Z0bPrJJKvpnWHizFXF2mohkGUeaRWy3OkGTikp4odgxzvdpZSyxBlyDuIMFzKOM3EC13LI7KWk4yZhapeKKY6z5WY8ZIsHIflSY9UHzuyYDvSs2s3N+p8gHW2JiPiRS974oF7u96yE2xxUdltrqQDj+Cq9dlTiuKBozapgexzZ+yARaKpRgz5Vb3MDSRg1uR2zt0GfFySwVccqFGgaGJHJ9Y4HY3fDNXtb8HnqmajSOzmRlzy+DpcLKqriCzeCdGZtwNFh58rkjWB3Otc/ALBFMqVKD36st4sdhSTIBJuU8HUra+yQ32Q9IVNntVqw8X2T8BYsLa6JTVY3iIsbVkSF1Xzy6zEOIrQxNrmwnUt5GyUdJaHtz7qIyI4lz3/uP9sBu35DvZHe6fwaP6PII//A/ZZr1g8AteZgAAAABJRU5ErkJggg==;strokeColor=#000000;" parent="4" vertex="1">
                    <mxGeometry x="54.449999999999996" y="69.34" width="91.1" height="79" as="geometry"/>
                </mxCell>
                <mxCell id="37" value="&lt;span style=&quot;background-color: rgb(255, 255, 255);&quot;&gt;eth0: 172.17.0.4&lt;br&gt;&lt;/span&gt;" style="text;html=1;align=center;verticalAlign=middle;resizable=0;points=[];autosize=1;strokeColor=none;fillColor=none;fontColor=#000000;" parent="4" vertex="1">
                    <mxGeometry x="45" y="170" width="110" height="30" as="geometry"/>
                </mxCell>
                <mxCell id="5" value="NGiNX Container" style="swimlane;whiteSpace=wrap;html=1;startSize=23;strokeColor=#000000;" parent="1" vertex="1">
                    <mxGeometry x="430" y="570" width="200" height="200" as="geometry"/>
                </mxCell>
                <mxCell id="16" value="" style="shape=image;verticalLabelPosition=bottom;labelBackgroundColor=default;verticalAlign=top;aspect=fixed;imageAspect=0;image=https://www.nginx.com/wp-content/uploads/2018/08/NGINX-logo-rgb-large.png;strokeColor=#000000;" parent="5" vertex="1">
                    <mxGeometry x="30" y="90" width="133.71" height="45" as="geometry"/>
                </mxCell>
                <mxCell id="38" value="&lt;span style=&quot;background-color: rgb(255, 255, 255);&quot;&gt;eth0: 172.17.0.5&lt;br&gt;&lt;/span&gt;" style="text;html=1;align=center;verticalAlign=middle;resizable=0;points=[];autosize=1;strokeColor=none;fillColor=none;fontColor=#000000;" parent="5" vertex="1">
                    <mxGeometry x="45" y="170" width="110" height="30" as="geometry"/>
                </mxCell>
                <mxCell id="9" value="" style="outlineConnect=0;dashed=0;verticalLabelPosition=bottom;verticalAlign=top;align=center;html=1;shape=mxgraph.aws3.router;fillColor=#F58536;gradientColor=none;strokeColor=#000000;" parent="1" vertex="1">
                    <mxGeometry x="75" y="644" width="50" height="52" as="geometry"/>
                </mxCell>
                <mxCell id="10" value="&lt;font color=&quot;#000000&quot;&gt;External Network&lt;/font&gt;" style="outlineConnect=0;dashed=0;verticalLabelPosition=bottom;verticalAlign=top;align=center;html=1;shape=mxgraph.aws3.internet_2;fillColor=#D2D3D3;gradientColor=none;strokeColor=#000000;" parent="1" vertex="1">
                    <mxGeometry x="-90" y="633" width="79.5" height="54" as="geometry"/>
                </mxCell>
                <mxCell id="12" value="&lt;font color=&quot;#000000&quot;&gt;Bridge&lt;br&gt;&lt;br&gt;&lt;/font&gt;" style="rounded=0;whiteSpace=wrap;html=1;fillColor=#FFFFFF;strokeColor=#000000;" parent="1" vertex="1">
                    <mxGeometry x="190" y="460" width="120" height="60" as="geometry"/>
                </mxCell>
                <mxCell id="22" value="" style="edgeStyle=elbowEdgeStyle;rounded=0;elbow=vertical;html=1;labelBackgroundColor=#ffffff;jettySize=auto;orthogonalLoop=1;strokeWidth=1;fontSize=14;endArrow=none;endFill=0;fontColor=#000000;exitX=0.5;exitY=1;exitDx=0;exitDy=0;entryX=0;entryY=0.5;entryDx=0;entryDy=0;strokeColor=#000000;" parent="1" source="2" target="12" edge="1">
                    <mxGeometry width="60" height="60" relative="1" as="geometry">
                        <mxPoint x="-10" y="460" as="sourcePoint"/>
                        <mxPoint x="230" y="470" as="targetPoint"/>
                        <Array as="points">
                            <mxPoint x="90" y="490"/>
                        </Array>
                    </mxGeometry>
                </mxCell>
                <mxCell id="25" value="" style="edgeStyle=elbowEdgeStyle;rounded=0;elbow=vertical;html=1;labelBackgroundColor=#ffffff;jettySize=auto;orthogonalLoop=1;strokeWidth=1;fontSize=14;endArrow=none;endFill=0;fontColor=#000000;entryX=1;entryY=0.5;entryDx=0;entryDy=0;exitX=0.5;exitY=1;exitDx=0;exitDy=0;strokeColor=#000000;" parent="1" source="4" target="12" edge="1">
                    <mxGeometry width="60" height="60" relative="1" as="geometry">
                        <mxPoint x="250" y="360" as="sourcePoint"/>
                        <mxPoint x="310" y="400" as="targetPoint"/>
                        <Array as="points">
                            <mxPoint x="420" y="490"/>
                        </Array>
                    </mxGeometry>
                </mxCell>
                <mxCell id="26" value="" style="edgeStyle=elbowEdgeStyle;rounded=0;elbow=vertical;html=1;labelBackgroundColor=#ffffff;jettySize=auto;orthogonalLoop=1;strokeWidth=1;fontSize=14;endArrow=none;endFill=0;fontColor=#000000;entryX=0.5;entryY=1;entryDx=0;entryDy=0;exitX=0;exitY=0.5;exitDx=0;exitDy=0;strokeColor=#000000;" parent="1" source="5" target="12" edge="1">
                    <mxGeometry width="60" height="60" relative="1" as="geometry">
                        <mxPoint x="540" y="380" as="sourcePoint"/>
                        <mxPoint x="320.0000000000002" y="500" as="targetPoint"/>
                        <Array as="points">
                            <mxPoint x="340" y="670"/>
                        </Array>
                    </mxGeometry>
                </mxCell>
                <mxCell id="27" value="" style="edgeStyle=elbowEdgeStyle;rounded=0;elbow=vertical;html=1;labelBackgroundColor=#ffffff;jettySize=auto;orthogonalLoop=1;strokeWidth=1;fontSize=14;endArrow=none;endFill=0;fontColor=#000000;exitX=1;exitY=0.5;exitDx=0;exitDy=0;exitPerimeter=0;strokeColor=#000000;" parent="1" source="9" edge="1">
                    <mxGeometry width="60" height="60" relative="1" as="geometry">
                        <mxPoint x="440.0000000000002" y="680" as="sourcePoint"/>
                        <mxPoint x="220" y="520" as="targetPoint"/>
                        <Array as="points">
                            <mxPoint x="190" y="670"/>
                        </Array>
                    </mxGeometry>
                </mxCell>
                <mxCell id="28" value="" style="edgeStyle=elbowEdgeStyle;rounded=0;elbow=vertical;html=1;labelBackgroundColor=#ffffff;jettySize=auto;orthogonalLoop=1;strokeWidth=1;fontSize=14;endArrow=none;endFill=0;fontColor=#000000;exitX=1;exitY=0.7;exitDx=0;exitDy=0;exitPerimeter=0;entryX=0;entryY=0.5;entryDx=0;entryDy=0;entryPerimeter=0;strokeColor=#000000;" parent="1" source="10" target="9" edge="1">
                    <mxGeometry width="60" height="60" relative="1" as="geometry">
                        <mxPoint x="135" y="680" as="sourcePoint"/>
                        <mxPoint x="230" y="540" as="targetPoint"/>
                        <Array as="points"/>
                    </mxGeometry>
                </mxCell>
                <mxCell id="29" value="" style="edgeStyle=elbowEdgeStyle;rounded=0;elbow=vertical;html=1;labelBackgroundColor=#ffffff;jettySize=auto;orthogonalLoop=1;strokeWidth=1;fontSize=14;endArrow=none;endFill=0;fontColor=#000000;exitX=0.5;exitY=0;exitDx=0;exitDy=0;entryX=0.5;entryY=1;entryDx=0;entryDy=0;strokeColor=#000000;" parent="1" source="12" target="3" edge="1">
                    <mxGeometry width="60" height="60" relative="1" as="geometry">
                        <mxPoint x="135" y="670" as="sourcePoint"/>
                        <mxPoint x="230" y="530" as="targetPoint"/>
                        <Array as="points">
                            <mxPoint x="300" y="410"/>
                        </Array>
                    </mxGeometry>
                </mxCell>
                <mxCell id="30" value="&lt;span style=&quot;background-color: rgb(255, 255, 255);&quot;&gt;veth&lt;br&gt;Port 8080&lt;br&gt;&lt;/span&gt;" style="text;html=1;align=center;verticalAlign=middle;resizable=0;points=[];autosize=1;strokeColor=none;fillColor=none;fontColor=#000000;" parent="1" vertex="1">
                    <mxGeometry x="-105" y="375" width="80" height="40" as="geometry"/>
                </mxCell>
                <mxCell id="31" value="&lt;span style=&quot;background-color: rgb(255, 255, 255);&quot;&gt;veth&lt;br&gt;Port 3306&lt;br&gt;&lt;/span&gt;" style="text;html=1;align=center;verticalAlign=middle;resizable=0;points=[];autosize=1;strokeColor=none;fillColor=none;fontColor=#000000;" parent="1" vertex="1">
                    <mxGeometry x="177" y="375" width="80" height="40" as="geometry"/>
                </mxCell>
                <mxCell id="32" value="&lt;span style=&quot;background-color: rgb(255, 255, 255);&quot;&gt;veth&lt;br&gt;Port 3000&lt;br&gt;&lt;/span&gt;" style="text;html=1;align=center;verticalAlign=middle;resizable=0;points=[];autosize=1;strokeColor=none;fillColor=none;fontColor=#000000;" parent="1" vertex="1">
                    <mxGeometry x="457" y="375" width="80" height="40" as="geometry"/>
                </mxCell>
                <mxCell id="33" value="&lt;span style=&quot;background-color: rgb(255, 255, 255);&quot;&gt;veth&lt;br&gt;Port 80&lt;br&gt;&lt;/span&gt;" style="text;html=1;align=center;verticalAlign=middle;resizable=0;points=[];autosize=1;strokeColor=none;fillColor=none;fontColor=#000000;" parent="1" vertex="1">
                    <mxGeometry x="370" y="670" width="60" height="40" as="geometry"/>
                </mxCell>
                <mxCell id="36" value="&lt;span style=&quot;background-color: rgb(255, 255, 255);&quot;&gt;eth0: 172.17.0.3&lt;br&gt;&lt;/span&gt;" style="text;html=1;align=center;verticalAlign=middle;resizable=0;points=[];autosize=1;strokeColor=none;fillColor=none;fontColor=#000000;" parent="1" vertex="1">
                    <mxGeometry x="195.00000000000003" y="340" width="110" height="30" as="geometry"/>
                </mxCell>
                <mxCell id="39" value="&lt;span style=&quot;background-color: rgb(255, 255, 255);&quot;&gt;eth0: 172.17.0.1&lt;br&gt;&lt;/span&gt;" style="text;html=1;align=center;verticalAlign=middle;resizable=0;points=[];autosize=1;strokeColor=none;fillColor=none;fontColor=#000000;" parent="1" vertex="1">
                    <mxGeometry x="195" y="490" width="110" height="30" as="geometry"/>
                </mxCell>
                <mxCell id="41" value="&lt;span style=&quot;background-color: rgb(255, 255, 255);&quot;&gt;Port&amp;nbsp;80&lt;br&gt;&lt;/span&gt;" style="text;html=1;align=center;verticalAlign=middle;resizable=0;points=[];autosize=1;strokeColor=none;fillColor=none;fontColor=#000000;" parent="1" vertex="1">
                    <mxGeometry x="4" y="675" width="60" height="30" as="geometry"/>
                </mxCell>
                <mxCell id="42" value="" style="shape=image;verticalLabelPosition=bottom;labelBackgroundColor=default;verticalAlign=top;aspect=fixed;imageAspect=0;image=https://cdn.hashnode.com/res/hashnode/image/upload/v1662313547352/s0Uk-haLQ.jpg;" vertex="1" parent="1">
                    <mxGeometry x="10" y="520" width="187.2" height="90" as="geometry"/>
                </mxCell>
            </root>
        </mxGraphModel>
    </diagram>
</mxfile>